HIERARCHY
ROOT Hips
{
	OFFSET 0.000000 0.000000 0.000000
	CHANNELS 6 Xposition Yposition Zposition Zrotation Yrotation Xrotation 
	JOINT LHipJoint
	{
		OFFSET 0.000000 0.000000 0.000000
		CHANNELS 3 Zrotation Yrotation Xrotation
		JOINT LeftUpLeg
		{
			OFFSET 1.363060 -1.794630 0.839290
			CHANNELS 3 Zrotation Yrotation Xrotation
			JOINT LeftLeg
			{
				OFFSET 2.448110 -6.726130 0.000000
				CHANNELS 3 Zrotation Yrotation Xrotation
				JOINT LeftFoot
				{
					OFFSET 2.562200 -7.039590 0.000000
					CHANNELS 3 Zrotation Yrotation Xrotation
					JOINT LeftToeBase
					{
						OFFSET 0.157640 -0.433110 2.322550
						CHANNELS 3 Zrotation Yrotation Xrotation
						End Site
						{
							OFFSET 0.000000 0.000000 0.000000
						}
					}
				}
			}
		}
	}
	JOINT RHipJoint
	{
		OFFSET 0.000000 0.000000 0.000000
		CHANNELS 3 Zrotation Yrotation Xrotation
		JOINT RightUpLeg
		{
			OFFSET -1.305520 -1.794630 0.839290
			CHANNELS 3 Zrotation Yrotation Xrotation
			JOINT RightLeg
			{
				OFFSET -2.542530 -6.985550 0.000000
				CHANNELS 3 Zrotation Yrotation Xrotation
				JOINT RightFoot
				{
					OFFSET -2.568260 -7.056230 0.000000
					CHANNELS 3 Zrotation Yrotation Xrotation
					JOINT RightToeBase
					{
						OFFSET -0.164730 -0.452590 2.363150
						CHANNELS 3 Zrotation Yrotation Xrotation
						End Site
						{
							OFFSET 0.000000 0.000000 0.000000
						}
					}
				}
			}
		}
	}
	JOINT LowerBack
	{
		OFFSET 0.000000 0.000000 0.000000
		CHANNELS 3 Zrotation Yrotation Xrotation
		JOINT Spine
		{
			OFFSET 0.028270 2.035590 -0.193380
			CHANNELS 3 Zrotation Yrotation Xrotation
			JOINT Spine1
			{
				OFFSET 0.056720 2.048850 -0.042750
				CHANNELS 3 Zrotation Yrotation Xrotation
				JOINT Neck
				{
					OFFSET 0.000000 0.000000 0.000000
					CHANNELS 3 Zrotation Yrotation Xrotation
					JOINT Neck1
					{
						OFFSET -0.054170 1.746240 0.172020
						CHANNELS 3 Zrotation Yrotation Xrotation
						JOINT Head
						{
							OFFSET 0.104070 1.761360 -0.123970
							CHANNELS 3 Zrotation Yrotation Xrotation
							End Site
							{
								OFFSET 0.000000 0.000000 0.000000
							}
						}
					}
				}
				JOINT LeftShoulder
				{
					OFFSET 0.000000 0.000000 0.000000
					CHANNELS 3 Zrotation Yrotation Xrotation
					JOINT LeftArm
					{
						OFFSET 3.362410 1.200890 -0.311210
						CHANNELS 3 Zrotation Yrotation Xrotation
						JOINT LeftForeArm
						{
							OFFSET 4.983000 -0.000000 -0.000000
							CHANNELS 3 Zrotation Yrotation Xrotation
							JOINT LeftHand
							{
								OFFSET 3.483560 -0.000000 -0.000000
								CHANNELS 3 Zrotation Yrotation Xrotation
								JOINT LeftFingerBase
								{
									OFFSET 0.000000 0.000000 0.000000
									CHANNELS 3 Zrotation Yrotation Xrotation
									JOINT LeftHandIndex1
									{
										OFFSET 0.715260 -0.000000 -0.000000
										CHANNELS 3 Zrotation Yrotation Xrotation
										End Site
										{
											OFFSET 0.000000 0.000000 0.000000
										}
									}
								}
								JOINT LThumb
								{
									OFFSET 0.000000 0.000000 0.000000
									CHANNELS 3 Zrotation Yrotation Xrotation
									End Site
									{
										OFFSET 0.000000 0.000000 0.000000
									}
								}
							}
						}
					}
				}
				JOINT RightShoulder
				{
					OFFSET 0.000000 0.000000 0.000000
					CHANNELS 3 Zrotation Yrotation Xrotation
					JOINT RightArm
					{
						OFFSET -3.136600 1.374050 -0.404650
						CHANNELS 3 Zrotation Yrotation Xrotation
						JOINT RightForeArm
						{
							OFFSET -5.241900 -0.000000 -0.000000
							CHANNELS 3 Zrotation Yrotation Xrotation
							JOINT RightHand
							{
								OFFSET -3.444170 -0.000000 -0.000000
								CHANNELS 3 Zrotation Yrotation Xrotation
								JOINT RightFingerBase
								{
									OFFSET 0.000000 0.000000 0.000000
									CHANNELS 3 Zrotation Yrotation Xrotation
									JOINT RightHandIndex1
									{
										OFFSET -0.622530 -0.000000 -0.000000
										CHANNELS 3 Zrotation Yrotation Xrotation
										End Site
										{
											OFFSET 0.000000 0.000000 0.000000
										}
									}
								}
								JOINT RThumb
								{
									OFFSET 0.000000 0.000000 0.000000
									CHANNELS 3 Zrotation Yrotation Xrotation
									End Site
									{
										OFFSET 0.000000 0.000000 0.000000
									}
								}
							}
						}
					}
				}
			}
		}
	}
}
MOTION
Frames: 9
Frame Time: 0.008333
-11.667037 8.534478 44.099636 118.127858 31.392713 -0.143604 177.999841 85.714488 -27.405750 32.053985 51.196885 74.985100 42.277820 33.577213 108.185763 156.866826 32.997200 -42.121878 0.979700 -6.300700 -17.659300 -65.921236 14.705792 -67.108651 -34.897288 86.549796 107.151093 -45.119332 -6.284114 63.889640 94.942328 -1.473338 10.439888 -0.091100 -1.946400 5.357600 -83.530953 -75.070059 1.076262 -18.624653 -15.194535 -148.539744 54.698078 70.473521 -175.325979 -52.870807 14.259113 70.652120 -1.135375 -5.943943 -39.196529 -0.591500 -1.563900 21.598400 -56.658398 72.884503 -131.354347 -94.485231 7.142928 -94.241558 -11.596499 -75.660054 152.987476 -19.554942 -18.267174 -24.999226 57.388937 61.422730 63.060500 -7.125000 0.000000 0.000000 -172.061500 12.750900 -6.050300 166.670102 42.546792 -43.506084 -101.901167 19.184698 105.079529 92.208476 60.778129 -12.975098 -72.420667 -11.790563 13.762720 -127.639790 -45.465088 57.567600 7.125000 0.000000 0.000000 168.829600 -6.946400 -9.932900 
-11.677575 8.535197 44.084067 -145.609348 -73.213308 47.999991 127.844218 -20.449229 118.675299 168.190320 -19.533682 -151.946857 -51.657005 80.787830 92.442458 -166.661903 83.278978 5.149719 1.079300 -6.603300 -18.545300 175.392463 -2.326691 -13.447073 -110.989574 -45.302764 -0.894073 69.697505 -59.294925 -122.323307 143.934752 -72.451411 -76.867380 -0.082200 -1.849900 5.091000 8.449663 76.975825 -43.935595 7.587452 49.636249 -112.659083 174.848013 -50.689305 -149.919867 -88.807749 -12.891904 -134.136416 -18.908847 46.628490 -82.961276 -0.619800 -1.477800 21.527500 89.132870 -6.389568 -50.748346 53.099277 88.687331 172.042200 -32.945628 85.687229 158.270175 -66.157988 34.849877 -72.327385 -131.238081 44.891303 -117.159200 -7.125000 0.000000 0.000000 -172.163200 12.646300 -5.988500 -3.640626 -25.489123 -41.542753 149.742668 -18.518581 61.941263 -42.854518 1.571325 177.759693 -35.873777 -7.280382 34.642702 -97.624290 -16.147190 57.498000 7.125000 0.000000 0.000000 168.849600 -6.901100 -9.924500 
-11.686676 8.531844 44.084307 -117.026124 63.987604 159.199248 -88.576015 79.790512 -125.804719 -83.476165 -14.844073 -0.223298 144.923966 60.966026 32.372712 -30.793543 -6.294041 -135.865851 1.070700 -6.577900 -18.470700 -115.353307 -27.527282 -159.853731 -103.646543 45.611188 83.816639 -90.408068 -71.238751 33.802091 -19.928644 -60.993455 -172.034436 -0.072900 -1.742400 4.794200 -31.353151 -33.327804 81.676947 -89.917531 -75.653347 -62.085883 -100.970740 61.111703 -102.836543 -148.993621 -80.719924 -100.957134 -103.724913 78.021295 50.679482 -0.673600 -1.405100 21.484900 -6.946134 -84.865603 -101.035649 -8.600487 -75.329678 -133.429189 -14.916874 41.926230 0.993871 90.853893 15.552754 25.086503 145.877064 11.091922 62.905700 -7.125000 0.000000 0.000000 -172.108000 12.664100 -6.028600 -20.627757 -30.854754 125.259335 -148.526260 79.615712 34.953092 -108.431092 32.191330 -145.166985 -43.461087 57.143507 64.074918 -103.730622 32.824079 57.649001 7.125000 0.000000 0.000000 168.761800 -6.976800 -9.988900 
-11.697694 8.529209 44.084786 -119.442473 -57.048988 -82.335768 -38.305264 -51.476743 -25.237620 130.375844 10.186790 169.726339 -108.023722 -72.799661 60.078279 -78.578977 70.381871 -10.764324 0.975300 -6.286800 -17.618800 -148.125052 27.904424 177.204672 -50.887176 61.374335 20.564670 154.475357 -79.910437 -55.256616 -159.675370 -22.814693 -92.908785 -0.093200 -1.969300 5.420800 -26.662289 4.101233 -93.335673 158.527596 -7.797709 175.764477 -109.655328 17.485679 -149.591304 -173.211304 82.106123 62.648682 13.301681 8.798680 11.567282 -0.761800 -1.305400 21.449300 -134.647107 51.386192 171.810281 -159.877783 60.733983 76.157598 -31.437589 -89.382240 -8.009682 55.043135 0.722172 11.567321 113.268349 35.113194 62.812500 -7.125000 0.000000 0.000000 -172.085300 12.586800 -6.059200 -88.974931 68.116684 -2.121485 -14.842544 66.729368 166.628777 24.545920 39.409290 -176.287273 -24.426976 20.844140 32.422257 -80.407157 -4.003980 57.694100 7.125000 0.000000 0.000000 168.831300 -7.048100 -9.908800 
-11.707993 8.526575 44.085265 -48.499732 -23.900407 -98.479599 -168.948071 85.548318 -169.600700 -159.726521 73.616393 -14.292130 146.923818 -13.074066 44.994676 -31.648202 10.624266 -101.733720 0.900700 -6.048300 -16.924700 -20.378397 22.168278 -49.933909 -109.785176 4.581044 -117.542400 70.324002 -84.276714 -135.740723 -114.101684 11.902941 136.114080 -0.096500 -2.003400 5.515000 -43.632145 -60.238453 89.346081 176.277396 -20.512210 127.174826 -38.666120 67.564003 -120.766133 -111.331571 75.471659 -169.468952 -112.237376 -64.909989 -154.945288 -0.826900 -1.215300 21.406000 36.332477 10.237785 -57.873877 78.080210 5.772814 -65.449748 16.247836 -1.990339 -169.387852 3.059760 -26.635621 17.139853 60.084513 17.978116 62.749800 -7.125000 0.000000 0.000000 -172.060500 12.529700 -6.088100 2.911183 12.431535 72.707619 -104.234128 -78.574099 -22.524403 -116.743269 -33.210678 -173.293671 -23.195446 7.251908 29.728397 -87.682929 -13.837459 57.698300 7.125000 0.000000 0.000000 168.893400 -7.083300 -9.843800 
-11.717813 8.523940 44.086702 -57.730736 -13.234014 -35.034445 42.379993 7.013763 5.312721 111.824131 -62.872591 105.574255 -86.769254 69.559954 132.319759 43.102538 -16.161755 102.665721 0.810700 -5.745800 -16.048500 -40.049692 65.049802 38.137836 -30.787402 19.837241 16.853625 -153.786602 79.678530 -169.420394 -7.454430 29.824676 -108.703129 -0.100000 -2.039200 5.613900 34.887803 50.017595 -36.596917 30.526370 50.876168 43.368372 26.298194 -46.112538 -140.884103 -90.966104 55.899823 44.843174 56.772106 24.046642 -11.685154 -0.887200 -1.122300 21.366700 -88.364419 0.976272 -48.830583 156.324308 48.397910 59.426644 -2.368516 34.867566 9.327240 -39.782783 -34.214459 -7.859969 21.817654 30.553644 62.689300 -7.125000 0.000000 0.000000 -172.025800 12.469100 -6.125400 -95.068304 -9.888207 169.571608 -135.656136 -27.242814 8.780116 -58.886700 88.591148 177.854641 -22.782805 -14.367056 17.385323 -92.743820 -30.482329 57.718700 7.125000 0.000000 0.000000 168.946200 -7.126700 -9.785600 
-11.726435 8.521784 44.085983 137.565657 -85.102026 -99.523645 -15.845977 -35.505641 -53.171428 150.637709 -45.477990 153.828352 147.565953 8.422273 170.026426 162.539209 -89.474330 22.881006 0.721900 -5.429300 -15.137100 6.819663 82.336006 -63.457790 87.001523 16.489095 91.084205 102.997969 74.272134 173.706879 51.796197 -78.888097 20.852889 -0.098100 -2.020200 5.561400 125.830651 -85.447227 -63.618140 35.724836 -8.735539 158.749058 -154.098466 57.198928 97.034376 -47.067752 82.892418 141.515202 12.155736 -6.676421 85.628333 -0.937100 -1.026200 21.332000 -76.548304 -8.774302 79.588767 89.498824 -89.039746 -77.494541 100.726942 -76.336376 176.717502 -26.132566 24.660095 -30.191391 60.623134 87.292596 62.613999 -7.125000 0.000000 0.000000 -171.997000 12.400800 -6.159400 -129.554359 -31.921694 93.448295 -104.560614 41.289774 175.048808 53.490833 -7.923335 163.059048 -27.285092 -22.712775 6.486548 -99.470819 -49.239588 57.767101 7.125000 0.000000 0.000000 168.965300 -7.175400 -9.757400 
-11.734339 8.520347 44.082630 -20.645593 -27.341229 131.976517 34.357996 -40.875129 85.161337 -119.052872 -21.376381 -0.595011 -138.284150 -4.697672 -64.170720 9.359610 23.684958 -91.045510 0.634500 -5.096500 -14.183900 73.563281 -29.484001 88.224471 91.750530 65.147393 -95.036299 -41.082599 15.606826 -121.058727 -69.406078 -59.661884 -42.721539 -0.089200 -1.926200 5.301700 136.674767 30.518870 157.255223 149.894769 -8.354648 -123.155156 2.059399 -15.024003 4.430296 -156.390446 56.981392 157.469032 31.530210 19.337121 -7.052520 -0.977900 -0.928400 21.298800 -60.991081 -49.242767 103.037490 -164.439749 37.989584 18.018243 12.460279 41.703164 162.232599 -6.047187 -16.977215 -17.866136 59.994485 61.235704 62.544599 -7.125000 0.000000 0.000000 -171.968200 12.336900 -6.192900 164.531953 -81.793656 159.681968 -106.211442 -82.012996 17.394290 30.578349 -70.670613 155.890201 -26.987778 13.177295 1.657203 -91.994992 -37.609268 57.866600 7.125000 0.000000 0.000000 168.921900 -7.232000 -9.784800 
-11.742243 8.519150 44.075924 52.697406 42.379544 139.751812 176.683295 -31.796656 67.388884 21.165849 66.190332 -52.760098 -51.799510 -67.967097 71.629941 114.584397 19.372566 -155.673334 0.553300 -4.765000 -13.239600 -123.066275 15.944153 143.928917 37.294369 -4.042850 156.754564 97.856703 11.574184 -147.256494 -60.837189 6.414610 -7.272149 -0.080400 -1.829100 5.033700 -168.105423 -84.412139 81.932592 38.323976 37.534730 34.332484 -146.398179 39.381736 -41.613804 -23.101688 63.971513 -144.206896 6.424285 52.993889 -5.323895 -1.007100 -0.826500 21.267500 -15.906854 -22.978484 -145.639835 170.869746 -38.620562 -62.772778 46.509898 70.482859 13.337569 51.582621 11.440825 37.635370 110.812086 5.066666 62.478100 -7.125000 0.000000 0.000000 -171.952700 12.281300 -6.214500 -126.276381 -48.082694 -169.899749 -146.537502 26.973866 -135.258221 101.136931 85.989131 172.196010 -49.860891 3.491917 28.515129 -111.003837 -17.458610 58.033500 7.125000 0.000000 0.000000 168.814300 -7.310200 -9.866300 
